<svg id="visual" viewBox="0 0 960 540" width="960" height="540" xmlns="http://www.w3.org/2000/svg" xmlns:xlink="http://www.w3.org/1999/xlink" version="1.1"><rect x="0" y="0" width="960" height="540" fill="#000"></rect><g transform="translate(417.7559382636743 305.08285211747625)"><path d="M277.6 -346.9C363.2 -319.9 438.4 -243.4 464.7 -153.2C491.1 -62.9 468.6 41 409.1 104.8C349.7 168.6 253.3 192.3 179 203.5C104.6 214.7 52.3 213.3 -15.4 234.5C-83.1 255.7 -166.1 299.3 -235.3 286.5C-304.4 273.6 -359.5 204.2 -350.1 136.6C-340.6 69 -266.6 3.2 -222.8 -54.1C-178.9 -111.3 -165.3 -160 -133.2 -204.4C-101.1 -248.8 -50.5 -288.9 22.7 -320.2C96 -351.5 192 -373.9 277.6 -346.9" fill="#29bb89"></path></g></svg>