<svg width="2560" height="1777" xmlns="http://www.w3.org/2000/svg"><path d="M0 0h2560v1777H0z"/><path d="M2560 1246.5c-76.6-9.1-153.3-18.2-204.2-88.4-50.9-70.2-76.2-201.5-132.7-232.5-56.5-31-144.3 38.3-237.6 69.5-93.3 31.1-192.1 24-226.7-40.2-34.7-64.2-5.3-185.5-32.3-255.5-27-70.1-110.4-88.8-129.5-143.4-19.1-54.6 26.1-145 5.5-207.5-20.6-62.4-107-96.9-166.2-150.4-59.1-53.4-91-125.7-122.8-198.1H2560zM0 530.5c67.1 36.7 134.1 73.5 204.9 84.4 70.8 11 145.3-3.9 210 22.3 64.7 26.1 119.6 93.3 143.1 173.3 23.5 80.1 15.4 173.1 98.9 183.6 83.6 10.5 258.7-61.3 298-18.3 39.3 42.9-57.1 200.8-74.2 292.7-17 91.9 45.3 117.8 70.3 162.4 24.9 44.6 12.4 107.8 55.5 168.6 43 60.8 141.5 119.2 240 177.5H0z" fill="#FBAE3C"/></svg>