<svg id="visual" viewBox="0 0 2560 1777" width="2560" height="1777" xmlns="http://www.w3.org/2000/svg" xmlns:xlink="http://www.w3.org/1999/xlink" version="1.1"><rect x="0" y="0" width="2560" height="1777" fill="#000000"></rect><defs><linearGradient id="grad1_0" x1="30.6%" y1="0%" x2="100%" y2="100%"><stop offset="21.187394485087225%" stop-color="#000000" stop-opacity="1"></stop><stop offset="78.81260551491278%" stop-color="#000000" stop-opacity="1"></stop></linearGradient></defs><defs><linearGradient id="grad2_0" x1="0%" y1="0%" x2="69.4%" y2="100%"><stop offset="21.187394485087225%" stop-color="#000000" stop-opacity="1"></stop><stop offset="78.81260551491278%" stop-color="#000000" stop-opacity="1"></stop></linearGradient></defs><g transform="translate(2560, 0)"><path d="M0 1246.5C-76.6 1237.4 -153.3 1228.3 -204.2 1158.1C-255.1 1087.9 -280.4 956.6 -336.9 925.6C-393.4 894.6 -481.2 963.9 -574.5 995.1C-667.8 1026.2 -766.6 1019.1 -801.2 954.9C-835.9 890.7 -806.5 769.4 -833.5 699.4C-860.5 629.3 -943.9 610.6 -963 556C-982.1 501.4 -936.9 411 -957.5 348.5C-978.1 286.1 -1064.5 251.6 -1123.7 198.1C-1182.8 144.7 -1214.7 72.4 -1246.5 0L0 0Z" fill="#FBAE3C"></path></g><g transform="translate(0, 1777)"><path d="M0 -1246.5C67.1 -1209.8 134.1 -1173 204.9 -1162.1C275.7 -1151.1 350.2 -1166 414.9 -1139.8C479.6 -1113.7 534.5 -1046.5 558 -966.5C581.5 -886.4 573.4 -793.4 656.9 -782.9C740.5 -772.4 915.6 -844.2 954.9 -801.2C994.2 -758.3 897.8 -600.4 880.7 -508.5C863.7 -416.6 926 -390.7 951 -346.1C975.9 -301.5 963.4 -238.3 1006.5 -177.5C1049.5 -116.7 1148 -58.3 1246.5 0L0 0Z" fill="#FBAE3C"></path></g></svg>